<?xml version="1.0" standalone="no"?>
<!DOCTYPE svg PUBLIC "-//W3C//DTD SVG 20010904//EN"
 "http://www.w3.org/TR/2001/REC-SVG-20010904/DTD/svg10.dtd">
<svg version="1.0" xmlns="http://www.w3.org/2000/svg"
 width="400.000000pt" height="400.000000pt" viewBox="0 0 400.000000 400.000000"
 preserveAspectRatio="xMidYMid meet">
<metadata>
Created by potrace 1.11, written by Peter Selinger 2001-2013
</metadata>
<g transform="translate(0.000000,400.000000) scale(0.100000,-0.100000)"
fill="#000000" stroke="none">
<path d="M1944 3214 c-54 -18 -84 -58 -161 -209 -36 -71 -69 -134 -73 -140
-14 -17 -229 -444 -581 -1150 -187 -374 -344 -688 -349 -697 -29 -52 10 -156
74 -199 l39 -26 1096 2 c940 1 1100 3 1126 15 56 27 90 81 94 146 2 37 -35
116 -319 682 -177 352 -322 648 -322 658 -1 19 47 123 213 457 49 98 89 187
89 197 0 47 -24 70 -115 115 -97 48 -128 54 -161 31 -11 -8 -65 -105 -120
-216 -88 -180 -100 -199 -112 -183 -8 10 -63 118 -124 241 -119 239 -136 263
-214 280 -30 7 -53 5 -80 -4z m141 -715 c44 -88 80 -163 80 -167 1 -4 4 -17 8
-29 6 -16 -14 -65 -83 -202 -49 -100 -90 -193 -90 -209 0 -16 10 -39 21 -51
28 -30 178 -101 213 -101 36 0 68 34 102 108 15 34 31 62 34 62 3 0 13 -15 24
-33 26 -45 376 -739 376 -746 0 -3 -347 -6 -770 -6 -424 0 -770 3 -770 7 0 6
398 806 709 1426 28 56 55 102 59 102 4 0 43 -72 87 -161z"/>
</g>
</svg>
